<svg width="19" height="19" viewBox="0 0 19 19" fill="none" xmlns="http://www.w3.org/2000/svg">
<path d="M9.5 17.5C11.0822 17.5 12.629 17.0308 13.9446 16.1518C15.2602 15.2727 16.2855 14.0233 16.891 12.5615C17.4965 11.0997 17.655 9.49113 17.3463 7.93928C17.0376 6.38743 16.2757 4.96197 15.1568 3.84315C14.038 2.72433 12.6126 1.9624 11.0607 1.65372C9.50887 1.34504 7.90034 1.50347 6.43853 2.10897C4.97672 2.71447 3.72729 3.73985 2.84824 5.05544C1.96919 6.37103 1.5 7.91775 1.5 9.5C1.5 10.78 1.80044 11.9889 2.33556 13.0618C2.73822 13.8716 2.17822 14.964 1.96489 15.7613C1.91763 15.9377 1.91762 16.1234 1.96487 16.2997C2.01211 16.4761 2.10495 16.6369 2.23404 16.766C2.36314 16.895 2.52394 16.9879 2.70029 17.0351C2.87664 17.0824 3.06232 17.0824 3.23867 17.0351C4.036 16.8218 5.12844 16.2618 5.93822 16.6653C7.04508 17.2149 8.26421 17.5006 9.5 17.5Z" stroke="white" stroke-width="2" stroke-linecap="round" stroke-linejoin="round"/>
</svg>
