<svg width="28" height="24" viewBox="0 0 28 24" fill="none" xmlns="http://www.w3.org/2000/svg">
<mask id="mask0_2657_12522" style="mask-type:luminance" maskUnits="userSpaceOnUse" x="7" y="4" width="21" height="18">
<path d="M10.9004 4.95996L27.5887 9.42319L24.4883 21.0158L7.8 16.5525L10.9004 4.95996Z" fill="white"/>
</mask>
<g mask="url(#mask0_2657_12522)">
<path fill-rule="evenodd" clip-rule="evenodd" d="M14.8046 15.2521L19.2919 16.4522C20.9458 16.8946 22.6389 15.9276 23.0766 14.2907C23.5135 12.6572 22.5292 10.9742 20.8752 10.5318L21.6674 7.56996C24.9718 8.45372 26.944 11.8206 26.0693 15.0911C25.1937 18.3649 21.8042 20.2979 18.4997 19.4141L14.0125 18.214C10.708 17.3302 8.73928 13.9642 9.61485 10.6904L10.0105 9.21115L12.9997 10.0106L12.6041 11.4899C12.1663 13.1268 13.1541 14.8107 14.8046 15.2521Z" fill="#666666"/>
<path fill-rule="evenodd" clip-rule="evenodd" d="M14.8046 15.2521L19.2919 16.4522C20.9458 16.8946 22.6389 15.9276 23.0766 14.2907C23.5135 12.6572 22.5292 10.9742 20.8752 10.5318L21.6674 7.56996C24.9718 8.45372 26.944 11.8206 26.0693 15.0911C25.1937 18.3649 21.8042 20.2979 18.4997 19.4141L14.0125 18.214C10.708 17.3302 8.73928 13.9642 9.61485 10.6904L10.0105 9.21115L12.9997 10.0106L12.6041 11.4899C12.1663 13.1268 13.1541 14.8107 14.8046 15.2521Z" fill="#C6C5C7"/>
</g>
<mask id="mask1_2657_12522" style="mask-type:luminance" maskUnits="userSpaceOnUse" x="0" y="2" width="21" height="18">
<path d="M3.51172 2.98389L20.444 7.51237L17.3436 19.1049L0.411326 14.5765L3.51172 2.98389Z" fill="white"/>
</mask>
<g mask="url(#mask1_2657_12522)">
<path fill-rule="evenodd" clip-rule="evenodd" d="M13.395 8.53134L8.90776 7.33124C7.25724 6.88981 5.56077 7.85583 5.12388 9.48939C4.68609 11.1263 5.67385 12.8102 7.32437 13.2516L6.53223 16.2135C3.22779 15.3297 1.25905 11.9638 2.13463 8.68992C3.00931 5.41945 6.39546 3.48561 9.6999 4.36937L14.1872 5.56947C17.4916 6.45323 19.4637 9.82013 18.5891 13.0906L18.1925 14.5732L15.1999 13.7728L15.5964 12.2902C16.0333 10.6567 15.0489 8.97368 13.395 8.53134Z" fill="#666666"/>
<path fill-rule="evenodd" clip-rule="evenodd" d="M13.395 8.53134L8.90776 7.33124C7.25724 6.88981 5.56077 7.85583 5.12388 9.48939C4.68609 11.1263 5.67385 12.8102 7.32437 13.2516L6.53223 16.2135C3.22779 15.3297 1.25905 11.9638 2.13463 8.68992C3.00931 5.41945 6.39546 3.48561 9.6999 4.36937L14.1872 5.56947C17.4916 6.45323 19.4637 9.82013 18.5891 13.0906L18.1925 14.5732L15.1999 13.7728L15.5964 12.2902C16.0333 10.6567 15.0489 8.97368 13.395 8.53134Z" fill="#C6C5C7"/>
</g>
</svg>
