<svg width="23" height="24" viewBox="0 0 23 24" fill="none" xmlns="http://www.w3.org/2000/svg">
<path d="M20.125 18.7084V12.2559C20.125 11.736 20.0192 11.2214 19.8141 10.7437C19.609 10.2659 19.3088 9.83484 18.9319 9.47673L12.8206 3.6721C12.4644 3.3337 11.9918 3.14502 11.5005 3.14502C11.0092 3.14502 10.5366 3.3337 10.1804 3.6721L4.06812 9.47673C3.69117 9.83484 3.391 10.2659 3.18589 10.7437C2.98077 11.2214 2.875 11.736 2.875 12.2559V18.7084C2.875 19.2167 3.07693 19.7042 3.43638 20.0636C3.79582 20.4231 4.28334 20.625 4.79167 20.625H18.2083C18.7167 20.625 19.2042 20.4231 19.5636 20.0636C19.9231 19.7042 20.125 19.2167 20.125 18.7084Z" stroke="#666666" stroke-width="3" stroke-linecap="round" stroke-linejoin="round"/>
<path d="M20.125 18.7084V12.2559C20.125 11.736 20.0192 11.2214 19.8141 10.7437C19.609 10.2659 19.3088 9.83484 18.9319 9.47673L12.8206 3.6721C12.4644 3.3337 11.9918 3.14502 11.5005 3.14502C11.0092 3.14502 10.5366 3.3337 10.1804 3.6721L4.06812 9.47673C3.69117 9.83484 3.391 10.2659 3.18589 10.7437C2.98077 11.2214 2.875 11.736 2.875 12.2559V18.7084C2.875 19.2167 3.07693 19.7042 3.43638 20.0636C3.79582 20.4231 4.28334 20.625 4.79167 20.625H18.2083C18.7167 20.625 19.2042 20.4231 19.5636 20.0636C19.9231 19.7042 20.125 19.2167 20.125 18.7084Z" stroke="#C6C5C7" stroke-width="3" stroke-linecap="round" stroke-linejoin="round"/>
</svg>
