<svg width="27" height="27" viewBox="0 0 27 27" fill="none" xmlns="http://www.w3.org/2000/svg">
<path d="M9 11.25V7.875C9 6.68153 9.47411 5.53693 10.318 4.69302C11.1619 3.84911 12.3065 3.375 13.5 3.375C14.6935 3.375 15.8381 3.84911 16.682 4.69302C17.5259 5.53693 18 6.68153 18 7.875V11.25" stroke="#11CD95" stroke-width="2" stroke-linecap="round"/>
<path d="M5.625 11.25H21.375V21.375C21.375 21.9717 21.1379 22.544 20.716 22.966C20.294 23.3879 19.7217 23.625 19.125 23.625H7.875C7.27826 23.625 6.70597 23.3879 6.28401 22.966C5.86205 22.544 5.625 21.9717 5.625 21.375V11.25Z" stroke="#11CD95" stroke-width="2" stroke-linejoin="round"/>
<path d="M16.3125 17.4375H16.3234V17.4484H16.3125V17.4375Z" stroke="#11CD95" stroke-width="3" stroke-linejoin="round"/>
</svg>
