<svg width="68" height="49" viewBox="0 0 68 49" fill="none" xmlns="http://www.w3.org/2000/svg">
<g clip-path="url(#clip0_2716_1647)">
<path d="M5.43173 7.25879V21.3331H11.9976V11.0326C11.9976 10.3145 11.8273 9.8041 11.4888 9.50362C11.1493 9.20313 10.719 9.00869 10.1969 8.92031C9.67701 8.82973 9.14828 8.74356 8.6085 8.66402C7.75015 8.52592 7.06547 8.33701 6.55555 8.09839C6.04452 7.85756 5.67065 7.57695 5.43173 7.25879Z" fill="#11CD95"/>
<path d="M13.3771 5.13301H14.1248C14.1248 5.93173 14.2753 6.51062 14.5761 6.86966C14.877 7.2298 15.2719 7.42976 15.7619 7.47063C16.2508 7.5093 16.785 7.45738 17.3635 7.31597C17.9653 7.17788 18.5548 6.91384 19.1333 6.52498C19.714 6.13611 20.3235 5.77265 20.9606 5.4335C21.6 5.09213 22.3012 4.9209 23.0622 4.9209C24.7989 4.9209 26.2368 5.27662 27.3761 5.98587C28.5176 6.6929 29.3328 7.65623 29.8228 8.87586C30.3117 10.0933 30.4268 11.4808 30.1679 13.0385C29.9876 14.2349 29.9025 15.2524 29.9113 16.092C29.9224 16.9316 30.2177 17.611 30.7962 18.1291C31.1966 18.4683 31.6324 18.5931 32.1014 18.5048C32.5704 18.4142 33.0449 18.128 33.5261 17.6475L33.9774 18.1291C33.4752 18.7898 32.8105 19.3996 31.982 19.9586C31.1524 20.5154 30.2631 20.9296 29.314 21.2003C28.3639 21.4677 27.4392 21.5163 26.5399 21.3461C25.6395 21.1782 24.8696 20.6954 24.2303 19.8967C23.7491 19.2781 23.4394 18.5953 23.3012 17.8463C23.1618 17.0951 23.1264 16.2953 23.195 15.4468C23.2658 14.5984 23.3609 13.7356 23.4826 12.8573C23.7215 11.3195 23.8155 10.0933 23.7657 9.17635C23.7149 8.25721 23.56 7.57448 23.3012 7.12595C23.0412 6.67522 22.7171 6.41008 22.3278 6.33054C21.9384 6.251 21.5236 6.28083 21.0845 6.41892C20.6421 6.55812 20.3456 6.83762 20.1952 7.25852C20.047 7.67722 19.9629 8.1854 19.943 8.78306V21.3329H13.3771V5.13301Z" fill="#11CD95"/>
<path d="M31.5464 5.13301H32.2941C32.2941 5.93173 32.4446 6.51062 32.7454 6.86966C33.0463 7.2298 33.4412 7.42976 33.9312 7.47063C34.4201 7.5093 34.9543 7.45738 35.5328 7.31597C36.1346 7.17788 36.7241 6.91384 37.3026 6.52498C37.8833 6.13611 38.4928 5.77265 39.1299 5.4335C39.7693 5.09213 40.4705 4.9209 41.2316 4.9209C42.9682 4.9209 44.4061 5.27662 45.5454 5.98587C46.6869 6.6929 47.5021 7.65623 47.9921 8.87586C48.481 10.0933 48.5961 11.4808 48.3372 13.0385C48.157 14.2349 48.0718 15.2524 48.0806 16.092C48.0917 16.9316 48.387 17.611 48.9655 18.1291C49.3659 18.4683 49.8017 18.5931 50.2707 18.5048C50.7397 18.4142 51.2143 18.128 51.6954 17.6475L52.1467 18.1291C51.6445 18.7898 50.9798 19.3996 50.1513 19.9586C49.3217 20.5154 48.4324 20.9296 47.4833 21.2003C46.5332 21.4677 45.6085 21.5163 44.7092 21.3461C43.8088 21.1782 43.039 20.6954 42.3996 19.8967C41.9185 19.2781 41.6087 18.5953 41.4705 17.8463C41.3311 17.0951 41.2957 16.2953 41.3643 15.4468C41.4351 14.5984 41.5302 13.7356 41.6519 12.8573C41.8908 11.3195 41.9848 10.0933 41.935 9.17635C41.8842 8.25721 41.7293 7.57448 41.4705 7.12595C41.2105 6.67522 40.8864 6.41008 40.4971 6.33054C40.1077 6.251 39.6929 6.28083 39.2538 6.41892C38.8114 6.55812 38.5149 6.83762 38.3645 7.25852C38.2163 7.67722 38.1322 8.1854 38.1123 8.78306V21.3329H31.5464V5.13301Z" fill="#11CD95"/>
<path d="M14.3747 43.1987C15.2353 43.1401 15.8967 42.7911 16.3569 42.1514C16.817 41.5129 17.1112 40.6832 17.2418 39.6635C17.3712 38.645 17.3502 37.5458 17.1798 36.367C17.0117 35.186 16.7163 34.0272 16.2949 32.8893C15.8757 31.7492 15.3569 30.735 14.7375 29.8446C14.1181 28.9553 13.4168 28.3013 12.6359 27.8826H21.3388C21.7193 28.4018 21.9494 29.1619 22.029 30.1628C22.1087 31.1615 22.0534 32.2751 21.8653 33.5035C21.6762 34.732 21.3521 35.977 20.8919 37.2375C20.4318 38.4958 19.8356 39.6492 19.1045 40.6976C18.3722 41.7471 17.5116 42.5966 16.5206 43.2473C15.5317 43.8958 14.4167 44.2195 13.1757 44.2195C11.4346 44.2195 9.99005 43.8649 8.83969 43.1545C7.68933 42.4453 6.87744 41.4753 6.40623 40.2468C5.93724 39.0184 5.8222 37.6253 6.06113 36.0665C6.26133 34.8679 6.35093 33.8438 6.33102 32.9953C6.31332 32.1447 6.01356 31.4697 5.43285 30.9715C5.03133 30.6301 4.58999 30.5097 4.10994 30.6091C3.62988 30.7096 3.15867 30.9891 2.69853 31.4487L2.22069 30.9715C2.72286 30.3119 3.38875 29.7021 4.22055 29.142C5.04903 28.583 5.94277 28.1687 6.90177 27.9003C7.86299 27.6296 8.79323 27.5799 9.69361 27.75C10.5929 27.918 11.3627 28.4018 12.0032 29.1995C12.4832 29.8004 12.793 30.481 12.9323 31.241C13.0739 31.9989 13.1148 32.8031 13.0562 33.6538C12.9965 34.5022 12.8969 35.3672 12.7553 36.2477C12.5164 37.7855 12.4014 39.025 12.4102 39.964C12.4191 40.9042 12.5131 41.6101 12.6934 42.0807C12.8759 42.5491 13.1159 42.8584 13.4146 43.0087C13.7155 43.1567 14.0351 43.2197 14.3747 43.1987Z" fill="#11CD95"/>
<path d="M22.3899 44.1005V30.0128C22.6288 30.331 23.0027 30.6116 23.5137 30.8524C24.0236 31.0911 24.7094 31.28 25.5711 31.4181C26.1109 31.5009 26.6396 31.5882 27.1595 31.6788C27.6816 31.7672 28.1118 31.9616 28.4514 32.2621C28.7932 32.5604 28.9647 33.0686 28.9647 33.7866V44.1005H22.3899ZM29.5354 27.1317C29.5354 28.1724 29.1837 29.0274 28.4824 29.6991C27.7833 30.3686 26.852 30.7022 25.6906 30.7022C24.5313 30.7022 23.6 30.3686 22.8987 29.6991C22.1996 29.0274 21.8501 28.1724 21.8501 27.1317C21.8501 26.0745 22.1996 25.2117 22.8987 24.5422C23.6 23.8705 24.5313 23.5347 25.6906 23.5347C26.852 23.5347 27.7833 23.8705 28.4824 24.5422C29.1837 25.2117 29.5354 26.0745 29.5354 27.1317Z" fill="#11CD95"/>
<path d="M37.9383 33.1589C37.9383 33.9367 37.758 34.5664 37.3985 35.0458C37.0379 35.5264 36.5822 35.9119 36.0313 36.2036C35.4827 36.493 34.9318 36.7471 34.381 36.9681C33.829 37.1868 33.3523 37.421 32.9519 37.6707C32.5537 37.9215 32.3247 38.2363 32.2661 38.6163C32.2041 39.0141 32.2727 39.3886 32.474 39.7388C32.6742 40.0901 33.0846 40.2646 33.704 40.2646C34.2261 40.2646 34.6818 40.0812 35.0712 39.7122C35.4606 39.3411 35.8455 38.9213 36.226 38.4528C36.6065 37.9822 37.0312 37.5624 37.5002 37.1934C37.9714 36.8223 38.5488 36.6367 39.2302 36.6367C40.2091 36.6367 40.9734 36.8664 41.5221 37.326C42.0729 37.7856 42.4689 38.3855 42.7078 39.1245C42.949 39.8647 43.0751 40.6689 43.0839 41.5373C43.095 42.4067 43.0507 43.2507 42.9512 44.0693H42.261C42.261 43.4098 42.2001 42.885 42.0796 42.4962C41.9579 42.1073 41.5586 41.9129 40.8805 41.9129C40.5199 41.9129 40.2146 42.0344 39.9647 42.2752C39.7136 42.5139 39.4581 42.7945 39.1992 43.1148C38.9393 43.433 38.6086 43.7114 38.2081 43.95C37.8066 44.1886 37.2757 44.308 36.6153 44.308C35.7747 44.308 34.954 44.1235 34.1553 43.7556C33.3556 43.3844 32.6953 42.7249 32.1732 41.7759C31.6533 40.828 31.3945 39.4946 31.3945 37.7767V28.5721H29.2928V27.8827H31.3945C32.7948 27.8827 33.9208 27.6739 34.7703 27.2552C35.622 26.8343 36.2437 26.3096 36.633 25.6821C37.0224 25.0524 37.2171 24.4072 37.2171 23.7466H37.9383V27.8827H42.4114V28.5721H37.9383V33.1589Z" fill="#11CD95"/>
<path d="M49.5845 36.7867C49.6431 36.8872 49.7017 36.9922 49.7614 37.1004C49.8234 37.2098 49.8942 37.3148 49.9738 37.4142C51.7137 40.1539 53.5001 41.6288 55.3318 41.8376C57.1636 42.0475 58.9389 41.2034 60.6589 39.3055C60.7585 39.385 60.8591 39.4756 60.9598 39.5751C61.0593 39.6756 61.15 39.7739 61.2297 39.8711C60.389 40.8323 59.5672 41.642 58.7652 42.3016C57.9655 42.9622 57.0552 43.4615 56.0353 43.7996C55.0144 44.1376 53.7446 44.3078 52.2259 44.3078C50.4229 44.3078 48.8511 43.9542 47.5094 43.2472C46.1699 42.538 45.1246 41.5581 44.3724 40.3086C43.6225 39.0603 43.2486 37.6164 43.2486 35.978C43.2486 34.3375 43.6225 32.898 44.3724 31.6607C45.1246 30.4212 46.1699 29.4457 47.5094 28.7354C48.8511 28.0261 50.4229 27.6704 52.2259 27.6704C53.8065 27.6704 55.0719 27.8958 56.0221 28.3465C56.9711 28.7972 57.5717 29.3883 57.8228 30.1185C58.0728 30.8465 57.9522 31.6254 57.46 32.4561C56.97 33.2847 56.0752 34.0823 54.7744 34.8512C53.4736 35.6201 51.7436 36.2653 49.5845 36.7867ZM52.133 31.0907C51.5135 30.0721 50.8023 29.4181 50.0004 29.1287C49.2006 28.837 48.5115 28.8713 47.9341 29.2303C47.1731 29.7318 46.9475 30.5869 47.2572 31.7977C47.5669 33.0063 48.2129 34.4579 49.1951 36.1548C50.0324 35.9758 50.7713 35.6466 51.4118 35.1694C52.0544 34.6899 52.4659 34.1 52.6462 33.4018C52.8254 32.7014 52.655 31.9303 52.133 31.0907Z" fill="#11CD95"/>
<path d="M51.5491 25.2283L52.9738 20.2305L54.6949 20.721L54.5444 21.2468L54.5666 21.2512C55.144 20.9309 55.6871 20.8425 56.1948 20.9861C56.5598 21.09 56.8806 21.2623 57.1549 21.5031C57.4314 21.7417 57.6073 22.0411 57.6814 22.4002C58.3627 21.9318 59.001 21.7837 59.5972 21.9539C60.1303 22.1041 60.5462 22.3847 60.8449 22.7935C61.1457 23.2033 61.2044 23.7281 61.0219 24.3666L60.0839 27.6587L58.3539 27.1638L59.1592 24.3357C59.2355 24.0705 59.2266 23.8297 59.1326 23.611C59.0375 23.39 58.845 23.2387 58.553 23.1558C58.2986 23.0829 58.0818 23.105 57.9026 23.2221C57.7256 23.337 57.6017 23.4983 57.531 23.7038L56.6815 26.6866L54.9515 26.1961L55.7567 23.3679C55.8331 23.1028 55.8242 22.862 55.7302 22.6432C55.6351 22.4223 55.4404 22.2698 55.1462 22.1836C54.8807 22.1107 54.6562 22.1372 54.4736 22.2632C54.2933 22.3902 54.1706 22.567 54.1064 22.7935L53.2702 25.7188L51.5491 25.2283Z" fill="#11CD95"/>
<path d="M64.7901 29.0656L61.8301 26.728C61.6023 27.0141 61.5259 27.2981 61.6001 27.5809C61.6764 27.8659 61.8235 28.0946 62.0425 28.2658C62.2726 28.4448 62.4772 28.5575 62.6575 28.6016C62.8367 28.6458 63.0834 28.6436 63.3964 28.5972L64.0114 29.9097C63.0292 30.2864 62.0436 30.0842 61.0558 29.3043C60.4386 28.8182 60.078 28.1907 59.9718 27.4218C59.8657 26.6562 60.0471 25.9768 60.5161 25.3847C60.9851 24.7903 61.6067 24.4545 62.3832 24.3771C63.1586 24.2976 63.8543 24.5009 64.4715 24.9869C65.1175 25.4995 65.4947 26.1038 65.6042 26.7987C65.7159 27.4903 65.498 28.183 64.9494 28.8756C64.8719 28.9728 64.8189 29.0358 64.7901 29.0656ZM62.4805 25.9768L64.0335 27.2008C64.1685 26.9688 64.2149 26.7413 64.1707 26.5203C64.1264 26.2994 63.9981 26.1049 63.7857 25.937C63.5524 25.7514 63.3179 25.6653 63.0823 25.6763C62.8489 25.6885 62.6487 25.789 62.4805 25.9768Z" fill="#11CD95"/>
<mask id="mask0_2716_1647" style="mask-type:luminance" maskUnits="userSpaceOnUse" x="7" y="2" width="6" height="5">
<path d="M7.10956 2.90625H12.5561V6.72422H7.10956V2.90625Z" fill="white"/>
</mask>
<g mask="url(#mask0_2716_1647)">
<path fill-rule="evenodd" clip-rule="evenodd" d="M9.13706 5.74859H10.6016C11.1413 5.74859 11.5783 5.31222 11.5783 4.7731C11.5783 4.2351 11.1413 3.79873 10.6016 3.79873V2.82324C11.68 2.82324 12.555 3.69598 12.555 4.7731C12.555 5.85133 11.68 6.72407 10.6016 6.72407H9.13706C8.0586 6.72407 7.18477 5.85133 7.18477 4.7731V4.28591H8.16036V4.7731C8.16036 5.31222 8.59839 5.74859 9.13706 5.74859Z" fill="#11CD95"/>
</g>
<mask id="mask1_2716_1647" style="mask-type:luminance" maskUnits="userSpaceOnUse" x="4" y="2" width="7" height="5">
<path d="M4.69817 2.90625H10.2243V6.72422H4.69817V2.90625Z" fill="white"/>
</mask>
<g mask="url(#mask1_2716_1647)">
<path fill-rule="evenodd" clip-rule="evenodd" d="M8.16031 3.79873H6.69581C6.15713 3.79873 5.71911 4.2351 5.71911 4.7731C5.71911 5.31222 6.15713 5.74859 6.69581 5.74859V6.72407C5.61735 6.72407 4.74352 5.85133 4.74352 4.7731C4.74352 3.69598 5.61735 2.82324 6.69581 2.82324H8.16031C9.23877 2.82324 10.1137 3.69598 10.1137 4.7731V5.2614H9.13701V4.7731C9.13701 4.2351 8.70009 3.79873 8.16031 3.79873Z" fill="#11CD95"/>
</g>
</g>
<defs>
<clipPath id="clip0_2716_1647">
<rect width="68" height="49" fill="white"/>
</clipPath>
</defs>
</svg>
