<svg width="163" height="118" viewBox="0 0 163 118" fill="none" xmlns="http://www.w3.org/2000/svg">
<g clip-path="url(#clip0_2677_1590)">
<path d="M13.0203 17.48V51.3733H28.7591V26.5679C28.7591 24.8386 28.3508 23.6095 27.5395 22.8859C26.7255 22.1623 25.6941 21.694 24.4426 21.4812C23.1964 21.2631 21.9291 21.0555 20.6352 20.864C18.5777 20.5314 16.9364 20.0765 15.7141 19.5019C14.4892 18.9219 13.593 18.2462 13.0203 17.48Z" fill="#11CD95"/>
<path d="M32.0657 12.3614H33.858C33.858 14.2848 34.2186 15.6789 34.9398 16.5435C35.661 17.4108 36.6076 17.8923 37.7821 17.9908C38.9541 18.0839 40.2347 17.9588 41.6214 17.6183C43.0638 17.2858 44.477 16.6499 45.8637 15.7135C47.2557 14.777 48.7166 13.9017 50.2439 13.085C51.7764 12.2629 53.4574 11.8506 55.2816 11.8506C59.4443 11.8506 62.8912 12.7072 65.6221 14.4152C68.3584 16.1178 70.3125 18.4377 71.4871 21.3748C72.659 24.3065 72.9348 27.648 72.3143 31.3991C71.8821 34.2803 71.678 36.7305 71.6992 38.7524C71.7257 40.7743 72.4336 42.4105 73.8203 43.6582C74.7802 44.4749 75.8248 44.7756 76.949 44.5627C78.0732 44.3446 79.2107 43.6555 80.3641 42.4983L81.4458 43.6582C80.2421 45.2491 78.6486 46.7176 76.6627 48.0638C74.6741 49.4046 72.5424 50.4023 70.2674 51.0541C67.9898 51.6979 65.7733 51.8149 63.6176 51.4052C61.4594 51.0009 59.614 49.8383 58.0815 47.9148C56.9281 46.425 56.1857 44.7809 55.8543 42.9771C55.5202 41.1681 55.4353 39.2419 55.5997 37.1988C55.7694 35.1556 55.9974 33.0778 56.2891 30.9628C56.8618 27.2596 57.0872 24.3065 56.9679 22.0984C56.8459 19.885 56.4747 18.2408 55.8543 17.1607C55.2312 16.0753 54.4543 15.4368 53.521 15.2452C52.5877 15.0537 51.5934 15.1255 50.5408 15.4581C49.4802 15.7933 48.7697 16.4664 48.4091 17.48C48.0538 18.4883 47.8523 19.712 47.8045 21.1513V51.3733H32.0657V12.3614Z" fill="#11CD95"/>
<path d="M75.6187 12.3614H77.411C77.411 14.2848 77.7716 15.6789 78.4928 16.5435C79.214 17.4108 80.1605 17.8923 81.3351 17.9908C82.5071 18.0839 83.7877 17.9588 85.1744 17.6183C86.6168 17.2858 88.03 16.6499 89.4167 15.7135C90.8087 14.777 92.2696 13.9017 93.7968 13.085C95.3294 12.2629 97.0104 11.8506 98.8345 11.8506C102.997 11.8506 106.444 12.7072 109.175 14.4152C111.911 16.1178 113.865 18.4377 115.04 21.3748C116.212 24.3065 116.488 27.648 115.867 31.3991C115.435 34.2803 115.231 36.7305 115.252 38.7524C115.279 40.7743 115.987 42.4105 117.373 43.6582C118.333 44.4749 119.378 44.7756 120.502 44.5627C121.626 44.3446 122.764 43.6555 123.917 42.4983L124.999 43.6582C123.795 45.2491 122.202 46.7176 120.216 48.0638C118.227 49.4046 116.095 50.4023 113.82 51.0541C111.543 51.6979 109.326 51.8149 107.171 51.4052C105.012 51.0009 103.167 49.8383 101.634 47.9148C100.481 46.425 99.7387 44.7809 99.4073 42.9771C99.0732 41.1681 98.9883 39.2419 99.1527 37.1988C99.3224 35.1556 99.5504 33.0778 99.8421 30.9628C100.415 27.2596 100.64 24.3065 100.521 22.0984C100.399 19.885 100.028 18.2408 99.4073 17.1607C98.7842 16.0753 98.0073 15.4368 97.074 15.2452C96.1407 15.0537 95.1464 15.1255 94.0938 15.4581C93.0332 15.7933 92.3226 16.4664 91.962 17.48C91.6068 18.4883 91.4052 19.712 91.3575 21.1513V51.3733H75.6187V12.3614Z" fill="#11CD95"/>
<path d="M34.4569 104.029C36.5197 103.888 38.1052 103.048 39.2082 101.507C40.3112 99.9696 41.0165 97.9717 41.3294 95.5161C41.6396 93.0633 41.5892 90.4162 41.1809 87.5775C40.7779 84.7336 40.0699 81.9428 39.0598 79.2026C38.0549 76.4571 36.8113 74.0149 35.3265 71.8706C33.8417 69.729 32.1607 68.154 30.2888 67.1458H51.1503C52.0624 68.3961 52.6138 70.2265 52.8048 72.6368C52.9957 75.0418 52.8631 77.7235 52.4123 80.6818C51.9589 83.6402 51.1821 86.6384 50.0791 89.6739C48.9761 92.7041 47.547 95.4815 45.7944 98.0063C44.0391 100.534 41.9763 102.579 39.6006 104.146C37.2303 105.708 34.5576 106.488 31.5827 106.488C27.4094 106.488 23.9466 105.634 21.1891 103.923C18.4317 102.215 16.4855 99.8792 15.356 96.9208C14.2318 93.9625 13.956 90.6077 14.5288 86.8539C15.0087 83.9674 15.2234 81.5012 15.1757 79.458C15.1333 77.4095 14.4147 75.784 13.0227 74.5842C12.0603 73.7621 11.0024 73.4722 9.85164 73.7116C8.70092 73.9537 7.57141 74.6268 6.46841 75.7335L5.323 74.5842C6.52675 72.9959 8.1229 71.5274 10.1168 70.1786C12.1027 68.8324 14.245 67.8348 16.5438 67.1883C18.8479 66.5365 21.0778 66.4168 23.236 66.8265C25.3916 67.2309 27.237 68.3961 28.7722 70.3169C29.9229 71.7642 30.6653 73.403 30.9994 75.2333C31.3388 77.0584 31.4369 78.9951 31.2964 81.0436C31.1532 83.0868 30.9146 85.1699 30.5752 87.2902C30.0025 90.9935 29.7267 93.9784 29.7479 96.2398C29.7692 98.5037 29.9945 100.204 30.4267 101.337C30.8642 102.465 31.4396 103.21 32.1554 103.572C32.8766 103.928 33.6429 104.08 34.4569 104.029Z" fill="#11CD95"/>
<path d="M53.6699 106.201V72.2753C54.2426 73.0415 55.1388 73.7173 56.3637 74.2972C57.586 74.8719 59.2299 75.3268 61.2954 75.6593C62.5893 75.8589 63.8567 76.069 65.1028 76.2872C66.3543 76.5 67.3857 76.9682 68.1997 77.6919C69.019 78.4102 69.43 79.634 69.43 81.3632V106.201H53.6699ZM70.7981 65.337C70.7981 67.8431 69.9549 69.9023 68.2739 71.5198C66.5982 73.132 64.3657 73.9354 61.5817 73.9354C58.803 73.9354 56.5705 73.132 54.8895 71.5198C53.2138 69.9023 52.376 67.8431 52.376 65.337C52.376 62.791 53.2138 60.7133 54.8895 59.1011C56.5705 57.4836 58.803 56.6748 61.5817 56.6748C64.3657 56.6748 66.5982 57.4836 68.2739 59.1011C69.9549 60.7133 70.7981 62.791 70.7981 65.337Z" fill="#11CD95"/>
<path d="M90.9401 79.8521C90.9401 81.725 90.5079 83.2414 89.6462 84.396C88.7818 85.5533 87.6895 86.4817 86.369 87.1841C85.0539 87.8811 83.7335 88.493 82.4131 89.0251C81.0901 89.5518 79.9473 90.1158 78.9875 90.7171C78.033 91.321 77.4841 92.0792 77.3436 92.9944C77.1951 93.9521 77.3595 94.854 77.8421 95.6973C78.322 96.5433 79.3056 96.9637 80.7904 96.9637C82.0419 96.9637 83.1343 96.522 84.0676 95.6335C85.0009 94.7396 85.9236 93.7286 86.8357 92.6006C87.7478 91.4673 88.7659 90.4564 89.8901 89.5678C91.0196 88.6739 92.4037 88.227 94.037 88.227C96.3835 88.227 98.2156 88.7803 99.5307 89.887C100.851 90.9938 101.8 92.4383 102.373 94.2181C102.951 96.0006 103.253 97.9374 103.275 100.028C103.301 102.122 103.195 104.155 102.956 106.126H101.302C101.302 104.538 101.156 103.274 100.867 102.338C100.575 101.401 99.6182 100.933 97.9929 100.933C97.1285 100.933 96.3967 101.226 95.7975 101.806C95.1956 102.38 94.5832 103.056 93.9627 103.827C93.3396 104.594 92.5469 105.264 91.5871 105.839C90.6246 106.413 89.3519 106.701 87.769 106.701C85.7539 106.701 83.7866 106.256 81.8722 105.37C79.9552 104.477 78.3723 102.888 77.1209 100.603C75.8747 98.3205 75.2543 95.1094 75.2543 90.9725V68.8061H70.2166V67.146H75.2543C78.611 67.146 81.3101 66.6432 83.3464 65.6349C85.388 64.6213 86.8781 63.3576 87.8114 61.8465C88.7447 60.3301 89.2114 58.7765 89.2114 57.1855H90.9401V67.146H101.662V68.8061H90.9401V79.8521Z" fill="#11CD95"/>
<path d="M118.857 88.5888C118.997 88.8309 119.138 89.0836 119.281 89.3443C119.43 89.6077 119.599 89.8604 119.79 90.0999C123.961 96.6976 128.243 100.249 132.634 100.752C137.024 101.258 141.28 99.225 145.403 94.6545C145.642 94.846 145.883 95.0642 146.124 95.3036C146.363 95.5457 146.58 95.7825 146.771 96.0166C144.756 98.3311 142.786 100.281 140.864 101.869C138.947 103.46 136.765 104.663 134.32 105.477C131.873 106.291 128.829 106.701 125.188 106.701C120.867 106.701 117.099 105.849 113.883 104.147C110.672 102.439 108.166 100.079 106.363 97.0701C104.566 94.0639 103.669 90.5867 103.669 86.6414C103.669 82.6907 104.566 79.2242 106.363 76.2446C108.166 73.2596 110.672 70.9105 113.883 69.1999C117.099 67.4919 120.867 66.6353 125.188 66.6353C128.977 66.6353 132.011 67.178 134.288 68.2634C136.563 69.3488 138.003 70.7722 138.605 72.5307C139.204 74.2839 138.915 76.1594 137.735 78.1601C136.56 80.1553 134.415 82.0761 131.297 83.9278C128.179 85.7794 124.032 87.3331 118.857 88.5888ZM124.966 74.8718C123.481 72.4189 121.776 70.844 119.854 70.147C117.937 69.4446 116.285 69.5271 114.901 70.3917C113.077 71.5995 112.536 73.6587 113.278 76.5745C114.021 79.4849 115.569 82.9807 117.924 87.067C119.931 86.6361 121.702 85.8433 123.237 84.694C124.777 83.5394 125.764 82.1187 126.196 80.4373C126.625 78.7507 126.217 76.8937 124.966 74.8718Z" fill="#11CD95"/>
<path d="M123.566 60.7534L126.981 48.7178L131.107 49.899L130.746 51.1653L130.799 51.176C132.183 50.4045 133.485 50.1916 134.702 50.5375C135.577 50.7876 136.346 51.2026 137.004 51.7825C137.666 52.3572 138.088 53.0782 138.266 53.9428C139.899 52.8148 141.429 52.4583 142.858 52.868C144.136 53.2298 145.133 53.9055 145.849 54.8899C146.57 55.8769 146.71 57.1406 146.273 58.6783L144.025 66.6062L139.878 65.4144L141.808 58.6038C141.991 57.9653 141.97 57.3853 141.744 56.8586C141.516 56.3265 141.055 55.962 140.355 55.7625C139.745 55.5869 139.225 55.6401 138.796 55.9221C138.372 56.1988 138.075 56.5872 137.905 57.082L135.869 64.2651L131.722 63.0839L133.652 56.2733C133.835 55.6348 133.814 55.0548 133.589 54.5281C133.361 53.996 132.894 53.6289 132.189 53.4213C131.552 53.2458 131.014 53.3096 130.577 53.6129C130.144 53.9188 129.85 54.3445 129.696 54.8899L127.692 61.9346L123.566 60.7534Z" fill="#11CD95"/>
<path d="M155.306 69.9952L148.21 64.3658C147.664 65.0548 147.481 65.7385 147.659 66.4196C147.842 67.106 148.195 67.6567 148.72 68.069C149.271 68.5 149.762 68.7714 150.194 68.8778C150.623 68.9842 151.214 68.9789 151.965 68.8671L153.439 72.0277C151.085 72.9349 148.722 72.448 146.354 70.5698C144.875 69.3992 144.011 67.8881 143.756 66.0365C143.501 64.1928 143.936 62.5567 145.061 61.1307C146.185 59.6995 147.675 58.8907 149.536 58.7045C151.395 58.5129 153.063 59.0024 154.542 60.173C156.09 61.4074 156.995 62.8627 157.257 64.536C157.525 66.2014 157.003 67.8695 155.687 69.5376C155.502 69.7717 155.375 69.9233 155.306 69.9952ZM149.769 62.5567L153.492 65.5044C153.816 64.9457 153.927 64.3977 153.821 63.8656C153.715 63.3335 153.407 62.8653 152.898 62.4609C152.339 62.014 151.777 61.8065 151.212 61.8331C150.652 61.8623 150.172 62.1044 149.769 62.5567Z" fill="#11CD95"/>
<mask id="mask0_2677_1590" style="mask-type:luminance" maskUnits="userSpaceOnUse" x="17" y="6" width="14" height="11">
<path d="M17.042 6.99854H30.0976V16.1928H17.042V6.99854Z" fill="white"/>
</mask>
<g mask="url(#mask0_2677_1590)">
<path fill-rule="evenodd" clip-rule="evenodd" d="M21.9019 13.8435H25.4124C26.7063 13.8435 27.7536 12.7927 27.7536 11.4944C27.7536 10.1988 26.7063 9.14795 25.4124 9.14795V6.79883C27.9976 6.79883 30.0948 8.90053 30.0948 11.4944C30.0948 14.091 27.9976 16.1927 25.4124 16.1927H21.9019C19.3168 16.1927 17.2222 14.091 17.2222 11.4944V10.3212H19.5607V11.4944C19.5607 12.7927 20.6107 13.8435 21.9019 13.8435Z" fill="#11CD95"/>
</g>
<mask id="mask1_2677_1590" style="mask-type:luminance" maskUnits="userSpaceOnUse" x="11" y="6" width="14" height="11">
<path d="M11.2617 6.99854H24.5082V16.1928H11.2617V6.99854Z" fill="white"/>
</mask>
<g mask="url(#mask1_2677_1590)">
<path fill-rule="evenodd" clip-rule="evenodd" d="M19.5606 9.14795H16.0501C14.7589 9.14795 13.7089 10.1988 13.7089 11.4944C13.7089 12.7927 14.7589 13.8435 16.0501 13.8435V16.1927C13.465 16.1927 11.3704 14.091 11.3704 11.4944C11.3704 8.90053 13.465 6.79883 16.0501 6.79883H19.5606C22.1458 6.79883 24.243 8.90053 24.243 11.4944V12.6703H21.9018V11.4944C21.9018 10.1988 20.8545 9.14795 19.5606 9.14795Z" fill="#11CD95"/>
</g>
</g>
<defs>
<clipPath id="clip0_2677_1590">
<rect width="163" height="118" fill="white"/>
</clipPath>
</defs>
</svg>
