<svg width="181" height="136" viewBox="0 0 181 136" fill="none" xmlns="http://www.w3.org/2000/svg">
<g clip-path="url(#clip0_35_826)">
<path d="M179.738 88.5797C179.738 102.016 176.749 114.756 171.397 126.167C171.122 126.757 170.837 127.344 170.549 127.928C169.4 130.242 168.153 132.499 166.815 134.692C166.62 135.012 166.426 135.329 166.226 135.644H16.2555C16.2074 135.567 16.1595 135.492 16.1116 135.415L16.0476 135.311C15.9195 135.105 15.7917 134.9 15.6665 134.692C14.3709 132.571 13.1607 130.388 12.0437 128.153C11.748 127.563 11.4601 126.968 11.1774 126.367C5.91578 115.215 2.90895 102.787 2.75172 89.6735C2.74625 89.3108 2.74365 88.9453 2.74365 88.5797C2.74365 83.8332 3.11694 79.1748 3.83643 74.6339C10.5165 32.337 47.1067 0 91.2406 0C135.9 0 172.834 33.1106 178.871 76.1467C179.442 80.21 179.738 84.3588 179.738 88.5797Z" fill="#E6E6E6"/>
<path d="M31.833 89.4657C28.4425 88.9186 13.2034 89.4496 2.75172 89.6736C2.74625 89.3109 2.74365 88.9454 2.74365 88.5798C2.74365 83.8333 3.11694 79.1749 3.83643 74.634C4.13787 74.3776 4.47627 74.1243 4.85476 73.8708C5.14787 73.6759 7.00596 72.6275 7.13377 72.6035C9.03169 72.2432 12.0411 73.3 13.4674 74.6311C16.154 77.1392 14.872 80.7278 16.7592 82.238C20.5603 76.208 23.9269 81.8964 28.413 85.5355C29.1461 86.1278 32.217 86.1119 31.833 89.4657Z" fill="white"/>
<path d="M41.5626 96.5704C38.7984 99.4224 36.6581 102.875 35.3331 106.621C35.2558 106.832 35.184 107.045 35.1147 107.259C32.2438 116.052 33.8751 125.876 31.3241 134.692C31.2309 135.012 31.1322 135.329 31.0284 135.644H18.2443L16.1119 135.415L16.0239 135.404C16.0317 135.372 16.0398 135.343 16.0478 135.311C16.1012 135.105 16.1572 134.9 16.2077 134.692C16.9594 131.743 17.5699 128.641 17.3512 125.674C17.2978 124.934 17.194 124.206 17.0235 123.488C16.8501 122.733 16.6075 121.994 16.2824 121.274C15.1495 118.755 13.1449 116.754 11.5351 114.511C9.1707 111.218 7.64061 107.328 7.12623 103.305C6.86228 101.258 6.9448 98.9477 8.37103 97.456C9.38911 96.3888 10.9486 95.9539 12.4173 96.066C13.886 96.1783 15.2802 96.7838 16.5463 97.5415C19.6862 99.4224 22.2133 102.315 23.6528 105.685C25.092 109.054 25.4414 112.88 24.6282 116.456C25.6064 111.829 26.9605 107.168 29.7089 103.323C32.4598 99.4758 36.8367 96.5409 41.5626 96.5704Z" fill="white"/>
<path d="M175.113 134.692H176.87C176.766 135.009 176.659 135.329 176.547 135.644H163.755L159.711 135.207L154.951 134.692L151.845 134.356C153.882 126.608 155.561 118.118 152.277 110.813C152.032 110.266 151.76 109.732 151.467 109.212L151.464 109.206C149.526 105.738 146.698 102.79 144.363 99.5426C140.426 94.0543 137.875 87.5738 137.017 80.8687C136.58 77.4591 136.715 73.609 139.091 71.1225C140.789 69.3481 143.387 68.6225 145.834 68.8093C148.284 68.9959 150.606 70.0019 152.714 71.2637C157.949 74.3987 162.158 79.22 164.557 84.8336C166.861 90.2231 167.484 96.3143 166.338 102.056C167.956 94.5879 170.211 87.104 174.649 80.8982C175.875 79.1827 177.296 77.5764 178.872 76.1465C179.442 80.2098 179.738 84.3586 179.738 88.5796C179.738 102.016 176.75 114.756 171.397 126.167L175.113 127.998L175.113 134.692Z" fill="white"/>
<path d="M175.113 127.998V134.716H173.087L173.085 134.692L172.328 128.758L170.55 127.928L161.298 123.606L157.128 121.659V120.138L159.664 120.391L162.46 121.768L171.397 126.167L175.113 127.998Z" fill="#090814"/>
<path d="M137.987 135.461L126.171 135.645H56.6685L56.7005 134.692L56.759 132.934L91.9688 46.4673L137.59 134.692L137.856 135.207L137.987 135.461Z" fill="#6C63FF"/>
<path opacity="0.15" d="M137.987 135.461L126.171 135.645H56.6685L56.7005 134.692L56.759 132.934L91.9688 46.4673L137.59 134.692L137.856 135.207L137.987 135.461Z" fill="black"/>
<path d="M43.9197 43.2552C45.8166 42.8938 48.8253 43.9515 50.2524 45.2835C52.9381 47.7903 51.6565 51.3777 53.5453 52.8898C57.3446 46.8589 60.7115 52.5469 65.1975 56.1859C65.9298 56.78 69.0031 56.7623 68.6171 60.1158C63.4934 59.2891 31.3148 60.9265 29.4812 60.2426C27.7138 59.5834 29.5696 55.7563 34.5473 57.4536C39.1703 51.9386 36.281 48.09 41.6399 44.5229C41.9327 44.328 43.7916 43.2796 43.9197 43.2552Z" fill="white"/>
<path d="M137.333 32.4383C139.747 31.9783 143.577 33.3245 145.393 35.0199C148.811 38.2104 147.18 42.7762 149.584 44.7008C154.419 37.0249 158.705 44.2642 164.414 48.8958C165.346 49.6519 169.258 49.6295 168.767 53.8976C162.245 52.8454 121.29 54.9294 118.956 54.059C116.707 53.22 119.069 48.3491 125.404 50.5093C131.288 43.4901 127.611 38.5918 134.431 34.0518C134.804 33.8037 137.17 32.4693 137.333 32.4383Z" fill="white"/>
<path d="M91.9685 46.4673L71.6168 134.692L71.3981 135.645H25.0731L25.0013 134.692L24.0816 122.528L21.5493 121.261L35.333 106.621L91.9685 46.4673Z" fill="#6C63FF"/>
<path d="M160.362 135.207H118.946L91.9692 46.4663L162.895 121.262L161.341 123.077L160.362 135.207Z" fill="#6C63FF"/>
<path d="M82.9766 29.9858L80.4497 31.3315L91.969 46.4662L104.169 30.816L102.481 29.9858L92.8555 42.1559L82.9766 29.9858Z" fill="#090814"/>
<path d="M24.0829 121.008L21.5499 121.262L6.09814 128.868V135.587H8.1246L8.88452 129.629L24.0829 122.53V121.008Z" fill="#090814"/>
<path d="M99.5682 70.6797C99.5682 70.6797 112.392 112.564 129.205 125.318V135.08H117.806C117.806 135.08 94.9677 87.0643 99.5682 70.6797Z" fill="#6C63FF"/>
<path opacity="0.15" d="M99.5682 70.6797C99.5682 70.6797 112.392 112.564 129.205 125.318V135.08H117.806C117.806 135.08 94.9677 87.0643 99.5682 70.6797Z" fill="white"/>
<path d="M180.583 135.644H0.411477C0.166266 135.626 -0.0149103 135.412 0.000968525 135.167C-0.0149103 134.924 0.166266 134.711 0.411477 134.692H180.583C180.799 134.718 180.969 134.889 180.996 135.105C181.03 135.37 180.847 135.61 180.583 135.644Z" fill="#CCCCCC"/>
<path d="M42.251 53.813L32.6786 54.7448C30.9811 54.91 29.541 56.1336 29.1945 57.8051C28.9878 58.802 29.2136 59.7142 30.6242 59.8717C30.6242 59.8717 26.6154 61.1054 28.21 63.8416L26.4929 73.6627C25.8429 77.3805 28.5042 80.8755 32.2607 81.2034C32.312 81.2078 32.3634 81.2119 32.4148 81.2156C34.8796 81.3923 39.1757 79.3583 39.664 76.9336L40.1861 64.178L42.251 53.813Z" fill="#090814"/>
<path d="M28.825 64.1776C27.9483 63.9375 27.0341 64.41 26.7247 65.2655C26.1628 66.8195 25.5374 69.1783 26.3949 70.3025C26.3949 70.3025 27.3354 70.8086 27.7788 69.3631C28.2223 67.9175 28.825 64.1776 28.825 64.1776Z" fill="#090814"/>
<path d="M37.2393 65.0681C34.5753 63.4909 28.2822 63.958 28.2197 63.9628L28.2007 63.72C28.4624 63.6991 34.634 63.2429 37.3634 64.8582L37.2393 65.0681Z" fill="white"/>
<path d="M58.4468 82.475L52.0923 72.7212L55.9281 71.7354L60.8007 81.023C61.4879 81.1751 62.158 81.6449 62.6006 82.3638C63.375 83.6217 63.1597 85.1614 62.1197 85.8029C61.0797 86.4444 59.6088 85.9448 58.8343 84.6869C58.3917 83.968 58.2737 83.1577 58.4468 82.475Z" fill="#FFB6B6"/>
<path d="M33.3826 80.7656L32.8221 69.1348L36.63 70.2238L36.1468 80.703C36.663 81.1817 37.0042 81.9261 37.0233 82.7703C37.0567 84.2474 36.0936 85.4673 34.8723 85.495C33.651 85.5226 32.6338 84.3476 32.6004 82.8704C32.5814 82.0262 32.8886 81.2672 33.3826 80.7656Z" fill="#FFB6B6"/>
<path d="M50.1526 131.582H55.0054V125.179H50.1526V131.582Z" fill="#FFB8B8"/>
<path d="M49.1701 135.373C48.755 135.036 48.5309 134.661 48.5042 134.256C48.4735 133.794 48.7047 133.297 49.1913 132.781C49.203 132.633 49.354 130.792 49.6906 130.463C49.6623 130.364 49.4909 129.711 49.7719 129.287C49.9043 129.087 50.1177 128.971 50.4061 128.941L50.4187 128.939L50.4249 128.95C50.433 128.965 51.2519 130.389 52.4837 130.514C53.1899 130.585 53.897 130.222 54.5853 129.432C54.61 129.374 54.8045 128.413 54.93 127.776L54.935 127.751L61.6467 131.282L65.57 132.369C66.0631 132.505 66.4074 132.958 66.4074 133.47C66.4074 133.907 66.1534 134.312 65.7602 134.501L63.8585 135.416C63.0639 135.798 62.1779 136 61.2962 136H50.9809C50.3126 136 49.6695 135.777 49.1701 135.373Z" fill="#090814"/>
<path d="M34.5057 125.055L38.9893 126.913L41.4364 120.998L36.9528 119.14L34.5057 125.055Z" fill="#FFB8B8"/>
<path d="M32.1491 128.181C31.8941 127.711 31.8307 127.279 31.9605 126.895C32.109 126.456 32.5123 126.086 33.1592 125.795C33.2268 125.662 34.0698 124.02 34.5067 123.844C34.5183 123.742 34.6096 123.073 35.0313 122.789C35.23 122.655 35.4716 122.629 35.7495 122.712L35.7617 122.716L35.7632 122.728C35.7652 122.745 35.9776 124.374 37.0679 124.961C37.693 125.297 38.4852 125.232 39.4228 124.767C39.468 124.722 40.0151 123.908 40.3743 123.369L40.3886 123.347L45.2399 129.18L48.4494 131.686C48.8527 132.001 48.9977 132.552 48.802 133.025C48.6351 133.428 48.2458 133.705 47.8102 133.729L45.7034 133.846C44.8231 133.895 43.9273 133.742 43.1127 133.405L33.5822 129.454C32.9647 129.198 32.4558 128.746 32.1491 128.181Z" fill="#090814"/>
<path d="M55.887 126.581L49.8522 126.41L46.8189 112.248L46.488 110.703C46.488 110.703 45.1659 105.479 42.9265 99.1827C42.1256 96.9217 41.2053 94.524 40.1852 92.1799C36.3267 83.3006 40.2803 76.6996 40.2803 76.6996L49.7476 75.8639L52.0067 75.6641L53.7448 98.4591L55.887 126.581Z" fill="#090814"/>
<path d="M53.7448 98.4591L46.8189 112.248L41.2759 123.282L36.1953 120.016L41.4098 104.824C41.4098 104.824 42.0866 102.584 42.9265 99.1827C43.8223 95.5694 44.903 90.6446 45.5556 85.7008C46.1545 81.1709 47.985 77.9765 49.7476 75.8639L52.0068 75.6641L53.7448 98.4591Z" fill="#090814"/>
<path d="M49.5928 53.7444L44.2472 53.2266L38.4946 65.3034L40.2803 76.6997L52.0067 75.6641C52.0067 75.6641 52.6019 70.3873 53.8312 67.1386C54.2655 65.991 54.2352 64.7202 53.7573 63.5902L49.5928 53.7444Z" fill="#D6D6E3"/>
<path d="M45.1094 54.5209L44.2472 53.2264C44.2472 53.2264 41.8038 52.8315 40.1863 56.1713C38.5688 59.5111 31.2656 69.0142 31.2656 69.0142L38.0819 74.1312L45.1094 54.5209Z" fill="#D6D6E3"/>
<path d="M49.0752 54.0892L49.5925 53.744C49.5925 53.744 51.5688 53.6107 52.0067 54.4897C52.4446 55.3687 58.2871 70.7197 58.2871 70.7197L50.497 74.6184L49.0752 54.0892Z" fill="#D6D6E3"/>
<path d="M43.2676 46.2505C43.2676 43.5408 45.4621 41.3442 48.1693 41.3442C50.8764 41.3442 53.071 43.5408 53.071 46.2505C53.071 48.448 51.6274 50.3079 49.6378 50.9325L48.6902 57.2007L43.8596 53.1714C43.8596 53.1714 44.9031 51.8409 45.4628 50.3407C44.1401 49.4621 43.2676 47.9585 43.2676 46.2505Z" fill="#FFB6B6"/>
<path d="M41.6939 52.6968C41.6939 52.6968 41.9228 54.435 44.0435 54.4917C46.9113 54.5685 48.3452 54.6069 48.3452 54.6069C48.3452 54.6069 44.7087 45.7487 46.204 46.7467C47.6993 47.7446 51.6867 43.561 51.6867 43.561L52.8632 45.7696C52.8632 45.7696 55.6741 44.7508 52.5589 42.256C52.5589 42.256 48.8421 39.3797 44.8962 41.1069C40.9504 42.8341 41.6939 52.6968 41.6939 52.6968Z" fill="#090814"/>
<path d="M40.3947 54.5162C40.3947 54.5162 47.7213 59.5014 38.9341 71.8166L39.6332 77.4128C39.6332 77.4128 50.3333 61.024 43.0726 53.0542L40.3947 54.5162Z" fill="#090814"/>
</g>
<defs>
<clipPath id="clip0_35_826">
<rect width="181" height="136" fill="white"/>
</clipPath>
</defs>
</svg>
