<svg width="17" height="18" viewBox="0 0 17 18" fill="none" xmlns="http://www.w3.org/2000/svg">
<path d="M6.81564 16.2002C6.95608 16.4434 7.15806 16.6454 7.40128 16.7858C7.6445 16.9262 7.9204 17.0001 8.20125 17.0001C8.4821 17.0001 8.75799 16.9262 9.00122 16.7858C9.24444 16.6454 9.44642 16.4434 9.58686 16.2002" stroke="#666666" stroke-width="2" stroke-linecap="round" stroke-linejoin="round"/>
<path d="M6.81564 16.2002C6.95608 16.4434 7.15806 16.6454 7.40128 16.7858C7.6445 16.9262 7.9204 17.0001 8.20125 17.0001C8.4821 17.0001 8.75799 16.9262 9.00122 16.7858C9.24444 16.6454 9.44642 16.4434 9.58686 16.2002" stroke="#C6C5C7" stroke-width="2" stroke-linecap="round" stroke-linejoin="round"/>
<path d="M9.73313 1.25132C9.01111 1.00801 8.24154 0.940082 7.48806 1.05314C6.73459 1.1662 6.01885 1.45699 5.40003 1.90149C4.78121 2.34598 4.27709 2.93139 3.92936 3.60932C3.58163 4.28726 3.40028 5.03823 3.4003 5.80014C3.4003 9.39935 2.27149 10.565 1.20829 11.6618C1.10395 11.7764 1.03517 11.919 1.01033 12.072C0.985495 12.225 1.00566 12.382 1.06838 12.5238C1.13109 12.6656 1.23366 12.7861 1.3636 12.8707C1.49354 12.9552 1.64525 13.0002 1.80029 13.0002H14.6003C14.7554 13.0002 14.9071 12.9552 15.037 12.8707C15.167 12.7861 15.2695 12.6656 15.3323 12.5238C15.395 12.382 15.4151 12.225 15.3903 12.072C15.3655 11.919 15.2967 11.7764 15.1923 11.6618C15.0277 11.4922 14.8715 11.3147 14.7243 11.1298" stroke="#666666" stroke-width="2" stroke-linecap="round" stroke-linejoin="round"/>
<path d="M9.73313 1.25132C9.01111 1.00801 8.24154 0.940082 7.48806 1.05314C6.73459 1.1662 6.01885 1.45699 5.40003 1.90149C4.78121 2.34598 4.27709 2.93139 3.92936 3.60932C3.58163 4.28726 3.40028 5.03823 3.4003 5.80014C3.4003 9.39935 2.27149 10.565 1.20829 11.6618C1.10395 11.7764 1.03517 11.919 1.01033 12.072C0.985495 12.225 1.00566 12.382 1.06838 12.5238C1.13109 12.6656 1.23366 12.7861 1.3636 12.8707C1.49354 12.9552 1.64525 13.0002 1.80029 13.0002H14.6003C14.7554 13.0002 14.9071 12.9552 15.037 12.8707C15.167 12.7861 15.2695 12.6656 15.3323 12.5238C15.395 12.382 15.4151 12.225 15.3903 12.072C15.3655 11.919 15.2967 11.7764 15.1923 11.6618C15.0277 11.4922 14.8715 11.3147 14.7243 11.1298" stroke="#C6C5C7" stroke-width="2" stroke-linecap="round" stroke-linejoin="round"/>
<path d="M15.3995 5.79991C15.3995 7.1254 14.325 8.19992 12.9995 8.19992C11.674 8.19992 10.5995 7.1254 10.5995 5.79991C10.5995 4.47442 11.674 3.3999 12.9995 3.3999C14.325 3.3999 15.3995 4.47442 15.3995 5.79991Z" fill="#EB5675"/>
</svg>
