<svg width="360" height="172" viewBox="0 0 360 172" fill="none" xmlns="http://www.w3.org/2000/svg">
<g clip-path="url(#clip0_19_502)">
<path d="M179.494 143.87L177.73 145.681L177.559 142.089L177.348 147.392L175.723 145.723L177.334 147.759L176.8 161.169H178.466L177.749 146.075L179.494 143.87Z" fill="#E6E6E6"/>
<path d="M182.778 148.336L181.014 150.147L180.843 146.555L180.632 151.858L179.006 150.189L180.617 152.224L180.084 165.635H181.749L181.032 150.541L182.778 148.336Z" fill="#E6E6E6"/>
<path d="M187.703 145.9L185.938 147.711L185.768 144.119L185.556 149.422L183.93 147.753L185.542 149.788L185.008 163.199H186.674L185.957 148.105L187.703 145.9Z" fill="#E6E6E6"/>
<path d="M175.664 147.929L173.899 149.74L173.729 146.148L173.518 151.452L171.892 149.783L173.503 151.818L172.969 165.229H174.635L173.918 150.135L175.664 147.929Z" fill="#E6E6E6"/>
<path d="M138.243 0H5.27026V170.507H138.243V0Z" fill="#E6E6E6"/>
<path d="M129.141 10.2812H14.0968V83.2185H129.141V10.2812Z" fill="white"/>
<path d="M129.142 80.2275H14.0959V158.401H129.142V80.2275Z" fill="white"/>
<path d="M74.6069 9.90723H68.6306V83.2186H74.6069V9.90723Z" fill="#3F3D56"/>
<path d="M129.141 9.90723H123.164V83.2186H129.141V9.90723Z" fill="#3F3D56"/>
<path d="M129.141 77.2339H14.0968V83.2185H129.141V77.2339Z" fill="#3F3D56"/>
<path d="M30.3551 49.5552L20.0732 56.4761V62.2019L35.6493 49.5552H30.3551Z" fill="white"/>
<path d="M47.2958 49.5552L20.0732 70.8957V75.7734L55.5543 49.5552H47.2958Z" fill="#E6E6E6"/>
<path d="M20.0731 9.90723H14.0968V83.2186H20.0731V9.90723Z" fill="#3F3D56"/>
<path d="M112.517 15.8921L89.5476 45.067L96.6446 45.8148L116.441 14.77L112.517 15.8921Z" fill="#E6E6E6"/>
<path d="M129.141 9.90723H14.0968V15.8918H129.141V9.90723Z" fill="#3F3D56"/>
<path d="M129.141 43.5708H14.0968V49.5554H129.141V43.5708Z" fill="#3F3D56"/>
<path d="M355.946 0H222.973V170.507H355.946V0Z" fill="#E6E6E6"/>
<path d="M346.834 10.0669H231.79V83.0042H346.834V10.0669Z" fill="white"/>
<path d="M346.832 80.0122H231.791V158.185H346.832V80.0122Z" fill="white"/>
<path d="M292.3 9.69287H286.324V83.0042H292.3V9.69287Z" fill="#3F3D56"/>
<path d="M346.834 9.69287H340.858V83.0042H346.834V9.69287Z" fill="#3F3D56"/>
<path d="M346.834 77.0195H231.79V83.0041H346.834V77.0195Z" fill="#3F3D56"/>
<path d="M248.049 49.3408L237.766 56.2622V61.9875L253.342 49.3408H248.049Z" fill="#E6E6E6"/>
<path d="M264.989 49.3408L237.766 70.6813V75.559L273.248 49.3408H264.989Z" fill="#E6E6E6"/>
<path d="M237.766 9.69287H231.79V83.0042H237.766V9.69287Z" fill="#3F3D56"/>
<path d="M330.211 15.6778L307.241 44.8527L314.338 45.6004L334.134 14.5557L330.211 15.6778Z" fill="#E6E6E6"/>
<path d="M346.834 9.69287H231.79V15.6775H346.834V9.69287Z" fill="#3F3D56"/>
<path d="M346.834 43.3564H231.79V49.341H346.834V43.3564Z" fill="#3F3D56"/>
<path d="M286.768 97.7344C286.768 97.7344 287.205 99.1952 284.725 100.51C282.245 101.825 281.516 106.791 284.433 108.252C287.351 109.713 288.226 111.612 286.768 112.927C285.309 114.242 282.683 117.748 286.184 118.624C289.685 119.501 290.123 121.254 289.102 121.984C288.08 122.715 291.436 120.669 291.436 120.669C291.436 120.669 292.019 124.175 295.083 123.299C298.146 122.422 306.753 105.769 302.377 103.432C298 101.094 286.768 97.7344 286.768 97.7344Z" fill="#2F2E41"/>
<path d="M282.787 131.051L268.789 140.9C268.789 140.9 258.197 129.914 258.197 123.474C258.197 117.034 252.522 104.912 249.874 109.836C247.226 114.761 252.9 126.505 252.9 126.505L263.493 151.508C263.493 151.508 269.546 152.644 272.951 149.992C276.355 147.341 285.813 142.037 285.813 142.037L282.787 131.051Z" fill="#FFB9B9"/>
<path d="M296.595 114.571C302.445 114.571 307.187 109.822 307.187 103.964C307.187 98.1059 302.445 93.3569 296.595 93.3569C290.745 93.3569 286.002 98.1059 286.002 103.964C286.002 109.822 290.745 114.571 296.595 114.571Z" fill="#FFB9B9"/>
<path d="M291.109 111.352C291.109 111.352 294.892 121.201 293.379 123.474C291.866 125.747 289.974 125.747 288.461 126.505C287.704 126.884 279.76 129.914 279.76 132.187C279.797 133.648 280.186 135.078 280.895 136.355L282.03 142.795L291.487 148.856L303.972 147.341L313.429 142.037C313.429 142.037 314.942 128.02 310.781 125.747C306.62 123.474 301.702 118.171 302.08 116.277C302.458 114.382 302.837 109.836 302.837 109.836L291.109 111.352Z" fill="#FFB9B9"/>
<path d="M311.161 140.144V140.156L310.82 143.501L310.386 147.792L309.892 152.644L309.332 158.185H281.919C281.55 155.157 280.897 151.945 279.758 149.993C279.042 148.831 278.723 147.467 278.85 146.108C279.105 143.57 280.893 141.8 280.893 141.281C280.893 140.712 277.707 137.379 276.114 135.743C275.578 135.195 275.222 134.838 275.222 134.838L280.139 131.05L280.208 131.168L280.897 132.378L283.163 136.352L282.409 139.385C282.409 139.385 283.581 139.588 285.211 139.848C288.028 140.29 292.22 140.899 294.134 140.899C295.909 140.899 298.078 141.813 299.87 142.336C299.927 142.352 299.98 142.369 300.032 142.385C301.159 142.702 302.124 142.848 302.732 142.482C302.769 142.462 302.804 142.439 302.838 142.413C303.155 142.198 303.498 142.025 303.859 141.898H303.864C305.174 141.433 306.515 141.062 307.877 140.785C309.409 140.448 310.755 140.213 311.084 140.156L311.086 140.155L311.088 140.154L311.09 140.155L311.092 140.156C311.136 140.148 311.161 140.144 311.161 140.144Z" fill="#6C63FF"/>
<path d="M312.341 139.568C312.312 139.771 312.288 139.978 312.264 140.181C312.146 141.074 312.049 141.967 311.964 142.86C311.728 145.231 311.586 147.609 311.538 149.993C311.524 150.883 311.43 151.77 311.258 152.644C310.882 154.524 310.375 156.376 309.742 158.185H299.031C299.315 156.074 299.696 152.827 299.882 149.425V149.421C299.911 148.893 299.931 148.361 299.951 147.829C300.021 146.041 299.997 144.251 299.878 142.466C299.874 142.422 299.874 142.377 299.87 142.336C299.85 142.105 299.83 141.882 299.809 141.658C299.055 134.083 303.592 125.749 303.592 125.749C305.128 125.749 306.628 126.597 307.966 127.766C309.6 129.228 310.852 131.067 311.614 133.124C312.377 135.181 312.626 137.393 312.341 139.568Z" fill="#FFB9B9"/>
<path opacity="0.1" d="M311.538 149.993C311.524 150.883 311.43 151.771 311.258 152.644C310.882 154.524 310.375 156.376 309.742 158.186H298.95C299.28 154.773 299.381 151.341 299.254 147.915C299.234 147.411 299.205 146.9 299.165 146.392V146.384C299.136 145.946 299.1 145.507 299.055 145.069C298.989 144.562 299.016 144.047 299.136 143.55V143.542C299.223 143.165 299.429 142.826 299.724 142.576C299.772 142.535 299.824 142.498 299.878 142.467C299.927 142.434 299.978 142.407 300.032 142.385C300.082 142.358 300.133 142.335 300.186 142.316C300.609 142.176 301.059 142.137 301.5 142.203C301.919 142.253 302.332 142.347 302.732 142.483C304.519 143.138 306.188 144.079 307.674 145.268C308.663 146.014 309.572 146.86 310.386 147.793C311.1 148.637 311.538 149.417 311.538 149.993Z" fill="black"/>
<path d="M298.675 144.31L299.881 149.424L306.62 152.644H312.294L314.942 140.521C314.942 140.521 310.267 139.531 307.876 140.784C305.485 142.037 299.87 142.337 299.87 142.337L298.675 144.31Z" fill="#6C63FF"/>
<path d="M296.681 93.3184C296.681 93.3184 297.166 94.9367 294.419 96.3931C291.671 97.8496 290.863 103.352 294.096 104.97C297.328 106.588 298.297 108.692 296.681 110.149C295.065 111.605 292.156 115.489 296.035 116.46C299.913 117.431 300.398 119.373 299.267 120.182C298.136 120.991 301.853 118.726 301.853 118.726C301.853 118.726 302.499 122.61 305.893 121.639C309.287 120.668 312.673 103.017 308.89 98.4715C305.372 94.2446 296.681 93.3184 296.681 93.3184Z" fill="#2F2E41"/>
<path d="M295.649 91.6525C295.65 89.2816 310.365 91.8843 313.402 95.1947C315.505 97.487 318.699 100.936 316.023 103.367C313.346 105.798 312.979 108.085 314.927 109.052C316.875 110.018 320.722 112.973 317.249 114.955C313.775 116.937 313.831 118.938 315.139 119.412C316.446 119.885 312.257 118.707 312.257 118.707C312.257 118.707 312.68 122.622 309.15 122.603C305.621 122.584 295.495 103.161 297.914 97.7615C300.163 92.7414 295.649 91.6525 295.649 91.6525Z" fill="#2F2E41"/>
<path d="M297.183 91.1326C287.711 90.5614 286.76 97.7015 286.76 97.7015C286.826 101.833 293.378 99.8201 295.198 100.436C297.394 98.8544 301.626 95.8617 304.653 93.726C302.456 92.1765 299.867 91.2778 297.183 91.1326Z" fill="#2F2E41"/>
<path d="M168.719 155.892L169.459 160.56C169.459 163.306 170.549 165.939 172.487 167.88C174.426 169.822 177.056 170.912 179.797 170.912C182.539 170.912 185.169 169.822 187.107 167.88C189.046 165.939 190.135 163.306 190.135 160.56L190.14 160.496L190.876 155.892H168.719Z" fill="#E6E6E6"/>
<path d="M360 170.441H0V171.253H360V170.441Z" fill="#3F3D56"/>
<path d="M37.3923 157.284V159.67C37.3923 159.67 35.8035 172 31.4344 172C27.0653 172 30.64 159.272 30.64 159.272V157.284L37.3923 157.284Z" fill="#9E616A"/>
<path d="M103.723 112.339L102.929 110.35C102.929 110.35 97.7652 102.793 101.34 100.804C104.915 98.8153 109.284 108.759 109.284 108.759L110.078 111.941L103.723 112.339Z" fill="#9E616A"/>
<path d="M87.2397 109.911C93.0301 109.911 97.7241 105.21 97.7241 99.412C97.7241 93.6136 93.0301 88.9131 87.2397 88.9131C81.4493 88.9131 76.7553 93.6136 76.7553 99.412C76.7553 105.21 81.4493 109.911 87.2397 109.911Z" fill="#9E616A"/>
<path d="M79.693 100.605L72.5441 106.174L82.4737 114.526L88.0338 107.765L79.693 100.605Z" fill="#9E616A"/>
<path d="M86.2176 158.401H49.7068L52.4757 128.997L54.5311 107.16V107.155C54.5751 106.687 54.7109 106.232 54.9308 105.816C55.1507 105.4 55.4503 105.031 55.8126 104.732C56.1748 104.432 56.5926 104.207 57.0419 104.069C57.4912 103.931 57.9633 103.883 58.4311 103.928L73.5811 105.365L84.7297 111.784L85.0541 114.727L96.1784 122.68L88.6176 137.083L83.8622 146.149L86.2176 158.401Z" fill="#6C63FF"/>
<path d="M54.8686 125.862L44.5417 139.385L38.1866 158.477H28.6541L35.4063 130.237L53.2297 105.833C53.6882 105.208 54.3359 104.749 55.0764 104.523C55.8168 104.297 56.6103 104.317 57.3386 104.58C57.5661 104.674 57.8034 104.741 58.0462 104.782L54.8686 125.862Z" fill="#6C63FF"/>
<path d="M87.4382 136.601L112.263 146.743L116.631 142.368L110.475 110.35L102.531 111.941L105.709 131.032L96.1768 122.68L92.9988 121.884L87.4382 136.601Z" fill="#6C63FF"/>
<path d="M76.9734 102.813C76.471 98.6356 76.9381 94.3984 78.3383 90.4313C80.6644 84.1787 88.0807 86.0631 92.3041 87.4811C96.5274 88.899 102.124 94.8304 100.667 98.068C99.2114 101.306 92.301 97.2153 89.8361 95.1301C87.3712 93.0448 83.0645 99.3779 83.0645 99.3779L76.9734 102.813Z" fill="#2F2E41"/>
<path d="M84.4012 99.0548C84.7882 97.9886 84.6225 96.9497 84.031 96.7344C83.4394 96.519 82.6462 97.2088 82.2591 98.275C81.872 99.3412 82.0378 100.38 82.6293 100.595C83.2208 100.811 84.0141 100.121 84.4012 99.0548Z" fill="#9E616A"/>
</g>
<defs>
<clipPath id="clip0_19_502">
<rect width="360" height="172" fill="white"/>
</clipPath>
</defs>
</svg>
