<svg width="27" height="27" viewBox="0 0 27 27" fill="none" xmlns="http://www.w3.org/2000/svg">
<path fill-rule="evenodd" clip-rule="evenodd" d="M12.375 4.5C11.9318 4.5 11.4929 4.5873 11.0834 4.75691C10.674 4.92652 10.3019 5.17512 9.98851 5.48851C9.67512 5.80191 9.42652 6.17397 9.25691 6.58344C9.0873 6.99292 9 7.43179 9 7.875C9 8.31821 9.0873 8.75708 9.25691 9.16656C9.42652 9.57603 9.67512 9.94809 9.98851 10.2615C10.3019 10.5749 10.674 10.8235 11.0834 10.9931C11.4929 11.1627 11.9318 11.25 12.375 11.25C13.2701 11.25 14.1286 10.8944 14.7615 10.2615C15.3944 9.62855 15.75 8.7701 15.75 7.875C15.75 6.97989 15.3944 6.12145 14.7615 5.48851C14.1286 4.85558 13.2701 4.5 12.375 4.5ZM6.75 7.875C6.75 6.38316 7.34263 4.95242 8.39752 3.89752C9.45242 2.84263 10.8832 2.25 12.375 2.25C13.8668 2.25 15.2976 2.84263 16.3525 3.89752C17.4074 4.95242 18 6.38316 18 7.875C18 9.36684 17.4074 10.7976 16.3525 11.8525C15.2976 12.9074 13.8668 13.5 12.375 13.5C10.8832 13.5 9.45242 12.9074 8.39752 11.8525C7.34263 10.7976 6.75 9.36684 6.75 7.875ZM4.96463 19.8011C4.60125 20.2624 4.5 20.6111 4.5 20.8125C4.5 20.9497 4.54163 21.0949 4.78688 21.2917C5.067 21.5167 5.55413 21.7496 6.29887 21.9465C7.78162 22.3402 9.91237 22.5 12.375 22.5C12.6248 22.5 12.8715 22.4981 13.1152 22.4944C13.4136 22.4903 13.7014 22.605 13.9152 22.8131C14.129 23.0213 14.2514 23.3058 14.2554 23.6042C14.2595 23.9026 14.1448 24.1903 13.9367 24.4041C13.7285 24.618 13.444 24.7403 13.1456 24.7444C12.8906 24.7481 12.6337 24.75 12.375 24.75C9.86737 24.75 7.49812 24.5925 5.72287 24.1222C4.83975 23.8882 4.00838 23.553 3.37838 23.0467C2.71125 22.5112 2.25 21.7631 2.25 20.8125C2.25 19.9271 2.65275 19.0991 3.1995 18.4061C3.75525 17.703 4.52363 17.0561 5.42475 16.5049C7.22813 15.4069 9.68062 14.625 12.375 14.625C12.8783 14.625 13.3717 14.6512 13.8555 14.7037C14.1522 14.7352 14.4243 14.8833 14.6119 15.1154C14.7994 15.3474 14.8871 15.6445 14.8556 15.9412C14.8241 16.238 14.6761 16.51 14.444 16.6976C14.2119 16.8852 13.9149 16.9729 13.6181 16.9414C13.2124 16.8971 12.798 16.875 12.375 16.875C10.0991 16.875 8.05162 17.5387 6.597 18.4264C5.86912 18.8696 5.319 19.3511 4.96463 19.8011ZM18.6593 17.0674C18.4482 16.8564 18.1619 16.738 17.8635 16.7381C17.565 16.7382 17.2789 16.8568 17.0679 17.0679C16.857 17.279 16.7385 17.5653 16.7386 17.8637C16.7388 18.1621 16.8574 18.4483 17.0685 18.6592L18.6593 20.25L17.0685 21.8407C16.9611 21.9445 16.8753 22.0687 16.8164 22.2059C16.7574 22.3432 16.7264 22.4908 16.7251 22.6402C16.7238 22.7895 16.7523 22.9377 16.8088 23.0759C16.8654 23.2142 16.9489 23.3398 17.0546 23.4454C17.1602 23.5511 17.2858 23.6346 17.4241 23.6912C17.5623 23.7477 17.7105 23.7762 17.8598 23.7749C18.0092 23.7736 18.1568 23.7426 18.2941 23.6836C18.4313 23.6247 18.5555 23.5389 18.6593 23.4315L20.25 21.8407L21.8407 23.4315C21.9445 23.5389 22.0687 23.6247 22.2059 23.6836C22.3432 23.7426 22.4908 23.7736 22.6402 23.7749C22.7896 23.7762 22.9377 23.7477 23.0759 23.6912C23.2142 23.6346 23.3398 23.5511 23.4454 23.4454C23.5511 23.3398 23.6346 23.2142 23.6912 23.0759C23.7477 22.9377 23.7762 22.7895 23.7749 22.6402C23.7736 22.4908 23.7426 22.3432 23.6836 22.2059C23.6247 22.0687 23.5389 21.9445 23.4315 21.8407L21.8407 20.25L23.4315 18.6592C23.6364 18.4471 23.7498 18.1629 23.7473 17.8679C23.7447 17.573 23.6264 17.2908 23.4178 17.0822C23.2092 16.8736 22.927 16.7553 22.6321 16.7527C22.3371 16.7502 22.0529 16.8636 21.8407 17.0685L20.25 18.6592L18.6593 17.0674Z" fill="#11CD95"/>
</svg>
