<svg width="27" height="27" viewBox="0 0 27 27" fill="none" xmlns="http://www.w3.org/2000/svg">
<path fill-rule="evenodd" clip-rule="evenodd" d="M11.3653 4.40854C10.8304 5.14935 2.93117 18.3051 2.25195 19.2434C1.9607 19.6467 1.7865 20.1226 1.74858 20.6187C1.71066 21.1147 1.81049 21.6116 2.03705 22.0545C2.26361 22.4974 2.60811 22.8692 3.03253 23.1287C3.45696 23.3883 3.94483 23.5255 4.44233 23.5254H22.6699C23.1671 23.5249 23.6546 23.3873 24.0786 23.1276C24.5027 22.8679 24.8469 22.4963 25.0733 22.0536C25.2998 21.6109 25.3997 21.1143 25.3621 20.6185C25.3245 20.1227 25.1509 19.6468 24.8602 19.2434C24.6653 18.9759 15.8633 4.57054 15.7469 4.40854C15.4965 4.06162 15.1674 3.77912 14.7865 3.58428C14.4056 3.38944 13.9839 3.28784 13.5561 3.28784C13.1283 3.28784 12.7066 3.38944 12.3257 3.58428C11.9448 3.77912 11.6157 4.06162 11.3653 4.40854ZM12.7347 5.39573C12.8285 5.26541 12.9519 5.15926 13.0948 5.08605C13.2377 5.01283 13.396 4.97465 13.5565 4.97465C13.7171 4.97465 13.8753 5.01283 14.0182 5.08605C14.1611 5.15926 14.2845 5.26541 14.3783 5.39573C14.4931 5.55604 23.2985 19.9631 23.4917 20.2314C23.7136 20.5394 23.7448 20.9477 23.5727 21.2861C23.3989 21.6244 23.0495 21.8387 22.6699 21.8387H4.44233C4.06264 21.8387 3.71333 21.6244 3.53952 21.2869C3.45497 21.1205 3.4178 20.934 3.43209 20.7478C3.44637 20.5616 3.51156 20.383 3.62052 20.2314C4.29889 19.2923 12.1989 6.1357 12.7347 5.39573Z" fill="#11CD95"/>
<path fill-rule="evenodd" clip-rule="evenodd" d="M12.6562 8.4375V16.875C12.6562 17.0988 12.7451 17.3134 12.9034 17.4716C13.0616 17.6299 13.2762 17.7188 13.5 17.7188C13.7238 17.7188 13.9384 17.6299 14.0966 17.4716C14.2549 17.3134 14.3438 17.0988 14.3438 16.875V8.4375C14.3438 8.21372 14.2549 7.99911 14.0966 7.84088C13.9384 7.68265 13.7238 7.59375 13.5 7.59375C13.2762 7.59375 13.0616 7.68265 12.9034 7.84088C12.7451 7.99911 12.6562 8.21372 12.6562 8.4375Z" fill="#11CD95"/>
<path d="M13.5 20.25C13.966 20.25 14.3438 19.8722 14.3438 19.4062C14.3438 18.9403 13.966 18.5625 13.5 18.5625C13.034 18.5625 12.6562 18.9403 12.6562 19.4062C12.6562 19.8722 13.034 20.25 13.5 20.25Z" fill="#11CD95"/>
</svg>
