<svg width="24" height="24" viewBox="0 0 24 24" fill="none" xmlns="http://www.w3.org/2000/svg">
<path d="M10.6292 23.6666C10.1042 23.6666 9.65229 23.4916 9.27351 23.1416C8.89473 22.7916 8.66606 22.3638 8.58751 21.8583L8.32501 19.9333C8.07223 19.836 7.83423 19.7194 7.61101 19.5833C7.38779 19.4471 7.16884 19.3013 6.95417 19.1458L5.14584 19.9041C4.65973 20.118 4.17362 20.1374 3.68751 19.9624C3.2014 19.7874 2.82223 19.4763 2.55001 19.0291L1.17917 16.6374C0.906952 16.1902 0.829174 15.7138 0.945841 15.2083C1.06251 14.7027 1.32501 14.2846 1.73334 13.9541L3.27917 12.7874C3.25973 12.6513 3.25001 12.5199 3.25001 12.3931V11.6056C3.25001 11.4796 3.25973 11.3485 3.27917 11.2124L1.73334 10.0458C1.32501 9.7152 1.06251 9.29714 0.945841 8.79158C0.829174 8.28603 0.906952 7.80964 1.17917 7.36242L2.55001 4.97075C2.82223 4.52353 3.2014 4.21242 3.68751 4.03742C4.17362 3.86242 4.65973 3.88186 5.14584 4.09575L6.95417 4.85408C7.16806 4.69853 7.39167 4.5527 7.62501 4.41658C7.85834 4.28047 8.09168 4.16381 8.32501 4.06658L8.58751 2.14159C8.66529 1.63603 8.89395 1.20825 9.27351 0.858252C9.65306 0.508252 10.105 0.333252 10.6292 0.333252H13.3708C13.8958 0.333252 14.3481 0.508252 14.7277 0.858252C15.1072 1.20825 15.3355 1.63603 15.4125 2.14159L15.675 4.06658C15.9278 4.16381 16.1662 4.28047 16.3902 4.41658C16.6142 4.5527 16.8327 4.69853 17.0458 4.85408L18.8542 4.09575C19.3403 3.88186 19.8264 3.86242 20.3125 4.03742C20.7986 4.21242 21.1778 4.52353 21.45 4.97075L22.8208 7.36242C23.0931 7.80964 23.1708 8.28603 23.0542 8.79158C22.9375 9.29714 22.675 9.7152 22.2667 10.0458L20.7208 11.2124C20.7403 11.3485 20.75 11.48 20.75 11.6068V12.3931C20.75 12.5199 20.7306 12.6513 20.6917 12.7874L22.2375 13.9541C22.6458 14.2846 22.9083 14.7027 23.025 15.2083C23.1417 15.7138 23.0639 16.1902 22.7917 16.6374L21.3917 19.0291C21.1195 19.4763 20.7403 19.7874 20.2542 19.9624C19.7681 20.1374 19.282 20.118 18.7958 19.9041L17.0458 19.1458C16.832 19.3013 16.6083 19.4471 16.375 19.5833C16.1417 19.7194 15.9083 19.836 15.675 19.9333L15.4125 21.8583C15.3347 22.3638 15.1065 22.7916 14.7277 23.1416C14.3489 23.4916 13.8966 23.6666 13.3708 23.6666H10.6292ZM10.8333 21.3333H13.1375L13.5458 18.2416C14.1486 18.086 14.7078 17.8578 15.2235 17.5568C15.7392 17.2558 16.2105 16.891 16.6375 16.4624L19.525 17.6583L20.6625 15.6749L18.1542 13.7791C18.2514 13.5069 18.3195 13.2203 18.3583 12.9193C18.3972 12.6183 18.4167 12.3118 18.4167 11.9999C18.4167 11.688 18.3972 11.382 18.3583 11.0818C18.3195 10.7815 18.2514 10.4945 18.1542 10.2208L20.6625 8.32492L19.525 6.34159L16.6375 7.56658C16.2097 7.11936 15.7384 6.74525 15.2235 6.44425C14.7086 6.14325 14.1494 5.91459 13.5458 5.75825L13.1667 2.66659H10.8625L10.4542 5.75825C9.8514 5.91381 9.29256 6.14247 8.77767 6.44425C8.26279 6.74603 7.79106 7.11042 7.36251 7.53742L4.47501 6.34159L3.33751 8.32492L5.84584 10.1916C5.74862 10.4833 5.68056 10.7749 5.64167 11.0666C5.60279 11.3583 5.58334 11.6694 5.58334 11.9999C5.58334 12.311 5.60279 12.6124 5.64167 12.9041C5.68056 13.1958 5.74862 13.4874 5.84584 13.7791L3.33751 15.6749L4.47501 17.6583L7.36251 16.4333C7.79029 16.8805 8.26201 17.255 8.77767 17.5568C9.29334 17.8585 9.85217 18.0868 10.4542 18.2416L10.8333 21.3333ZM12.0583 16.0833C13.1861 16.0833 14.1486 15.6846 14.9458 14.8874C15.7431 14.0902 16.1417 13.1277 16.1417 11.9999C16.1417 10.8721 15.7431 9.90964 14.9458 9.11242C14.1486 8.3152 13.1861 7.91658 12.0583 7.91658C10.9111 7.91658 9.94395 8.3152 9.15684 9.11242C8.36973 9.90964 7.97579 10.8721 7.97501 11.9999C7.97423 13.1277 8.36817 14.0902 9.15684 14.8874C9.94551 15.6846 10.9127 16.0833 12.0583 16.0833Z" fill="#11CD95"/>
</svg>
